<svg xmlns="http://www.w3.org/2000/svg" width="308" height="123.47304438542045" viewBox="0 0 308 123.47304438542045" class="editor-view__logo-preview" data-v-7b637543="" data-v-15c4ff7b=""><svg id="mark" viewBox="0 0 100 100" width="71" height="71" x="118.5" y="0" data-v-7b637543="" style="fill: rgb(21, 37, 51);"><rect x="0" y="0" width="100%" height="100%" fill="none" data-v-7b637543=""></rect><g data-v-7b637543=""><g xmlns="http://www.w3.org/2000/svg"><path d="M67.6024,41.55433c-0.14746,0-0.2969-0.01966-0.44633-0.05997c-0.89658-0.24675-1.42352-1.17283-1.17774-2.06941   c1.08926-3.97071,1.4707-7.49511,1.59851-9.75229c0.05309-0.92902,0.91034-1.62505,1.77547-1.58573   c0.93,0.05309,1.63979,0.84743,1.58671,1.77645c-0.13763,2.41939-0.54463,6.19742-1.71255,10.45225   C69.02002,41.06376,68.34365,41.55433,67.6024,41.55433z M32.33098,41.49632c-0.74519,0-1.42745-0.5004-1.62604-1.25639   c-0.94967-3.61287-1.53559-7.3093-1.65356-10.40801c-0.03343-0.93001,0.69013-1.71157,1.62014-1.74597   c0.92018-0.05702,1.70862,0.68817,1.74597,1.61817c0.10814,2.8608,0.65671,6.29868,1.54346,9.68052   c0.23594,0.89953-0.30083,1.81971-1.19938,2.05565C32.61804,41.47863,32.47254,41.49632,32.33098,41.49632z"></path><path d="M11.33014,99.99529c-0.93001,0-1.68306-0.75305-1.68306-1.68305c0-11.24462,2.95321-21.58087,8.10462-28.35635   c0.5643-0.73929,1.61817-0.88282,2.35942-0.32246c0.74125,0.56429,0.88478,1.62014,0.32245,2.35942   c-4.71492,6.20332-7.42039,15.79635-7.42039,26.31938C13.01319,99.24224,12.26014,99.99529,11.33014,99.99529z M35.47098,66.89454   c-0.64884,0-1.26622-0.37751-1.54346-1.01062c-0.37161-0.85332,0.0177-1.84624,0.86905-2.21786   c0.76091-0.33032,1.43139-0.79434,2.05074-1.41565c0.6744-0.63311,1.05584-1.45301,1.24066-2.61306   c0.14746-0.91821,1.01455-1.52969,1.92883-1.39796c0.91821,0.14746,1.54346,1.01062,1.39796,1.92883   c-0.30672,1.90917-1.03421,3.38184-2.22376,4.49863c-0.88282,0.88675-1.89344,1.58279-3.04562,2.08613   C35.92517,66.84735,35.69709,66.89454,35.47098,66.89454z"></path><path d="M88.60521,99.99529c-0.93001,0-1.68306-0.75305-1.68306-1.68305c0-8.083-1.62013-15.80421-4.56155-21.74013   c-0.4129-0.83366-0.07275-1.84232,0.76092-2.25522c0.83759-0.41683,1.84428-0.07275,2.25522,0.76092   c3.16753,6.39011,4.91153,14.64219,4.91153,23.23443C90.28826,99.24224,89.53522,99.99529,88.60521,99.99529z M72.28389,68.60513   c-0.07668,0-0.15533-0.00394-0.23201-0.01573l-1.12269-0.14943c-3.56077-0.46206-7.24147-0.9418-10.15339-3.79868   c-1.16399-1.09123-1.89147-2.56391-2.1982-4.47308c-0.1455-0.91821,0.47975-1.78136,1.39796-1.92883   c0.91231-0.1396,1.7794,0.47975,1.92883,1.39796c0.18482,1.16005,0.56626,1.97995,1.20134,2.5757   c2.13528,2.09202,5.10815,2.47937,8.25798,2.88833l1.14825,0.15336c0.92214,0.12781,1.56509,0.9772,1.43728,1.89737   C73.83324,67.99561,73.11166,68.60513,72.28389,68.60513z"></path><path d="M88.60521,99.99529H11.33014c-0.93001,0-1.68306-0.75305-1.68306-1.68305c0-0.93001,0.75305-1.68306,1.68306-1.68306   h77.27507c0.93001,0,1.68305,0.75305,1.68305,1.68306C90.28826,99.24224,89.53522,99.99529,88.60521,99.99529z"></path><path d="M49.96964,65.86819c-0.14353,0-0.291-0.01966-0.43453-0.05898c-15.34412-4.0877-21.68507-12.95127-18.84983-26.34592   c0.11797-0.55348,0.50531-1.0116,1.03225-1.21805c0.52497-0.2035,1.12269-0.13468,1.58475,0.19072   c2.71531,1.91212,4.6579,3.45951,6.0008,4.7857l0.14157-0.05112c3.95597-1.42647,5.59184-2.01731,10.52303-2.01731   c0.93001,0,1.68306,0.75403,1.68306,1.68404s-0.75305,1.68404-1.68306,1.68404c-4.34134,0-5.6115,0.45714-9.37871,1.81676   l-1.18365,0.42568c-0.64491,0.22808-1.3724,0.0462-1.83052-0.47385c-0.83563-0.94967-2.16281-2.10874-4.02872-3.51456   c-1.17381,10.1003,4.24303,16.41963,16.85415,19.78181c0.89855,0.23791,1.43335,1.16005,1.19347,2.0586   C51.39316,65.37074,50.71286,65.86819,49.96964,65.86819z"></path><path d="M49.96571,65.86819c-0.74322,0-1.42548-0.4994-1.62604-1.25246c-0.23791-0.89855,0.29689-1.82069,1.19544-2.06057   c12.66028-3.36021,18.08302-9.67364,16.86792-19.76411c-1.85805,1.42155-3.17146,2.57472-3.98546,3.49883   c-0.45812,0.51809-1.18561,0.69996-1.82462,0.47581l-1.33307-0.47483c-3.7043-1.32423-4.95086-1.76957-9.2922-1.76957   c-0.93,0-1.68306-0.75403-1.68306-1.68404s0.75305-1.68404,1.68306-1.68404c4.9253,0,6.53561,0.5761,10.42472,1.96717   l0.29493,0.10421c1.31538-1.29965,3.23634-2.84507,5.93396-4.7798c0.45812-0.33032,1.05387-0.40799,1.58671-0.2035   c0.52891,0.2035,0.92017,0.65966,1.04012,1.21412c2.90209,13.39661-3.43886,22.26411-18.84787,26.35575   C50.25473,65.84853,50.10924,65.86819,49.96571,65.86819z"></path><path d="M53.67787,51.14342c-0.15336,0-0.30869-0.02163-0.46402-0.06685c-2.10186-0.60165-4.32954-0.60165-6.43533,0   c-0.89462,0.26543-1.82659-0.25954-2.08219-1.15415c-0.25561-0.89462,0.2615-1.82659,1.15415-2.08219   c2.71137-0.77566,5.57611-0.77665,8.29141,0c0.89265,0.2556,1.40976,1.18758,1.15415,2.08219   C55.08566,50.6617,54.41125,51.14342,53.67787,51.14342z"></path><path d="M30.7364,31.45206c-0.57609,0-1.13646-0.29493-1.45105-0.8258c-3.45852-5.83368-4.25876-10.94085-2.37712-15.17798   c2.06253-4.65101,7.19231-7.8382,15.24778-9.47407c1.4884-0.30181,2.93748-0.58691,4.34134-0.86316   c7.41646-1.45891,13.82033-2.71924,18.49789-4.94299c0.50334-0.23987,1.0873-0.21333,1.56902,0.06488   c0.47975,0.2792,0.79237,0.77664,0.83366,1.33013c0.69406,9.26566-5.42668,15.93693-18.1951,19.82801   c-0.90445,0.2733-1.83249-0.23103-2.10185-1.11974c-0.27133-0.88872,0.23005-1.82954,1.11876-2.10087   c9.98037-3.04169,15.177-7.61406,15.79831-13.9324C59.34245,6.0155,53.61888,7.14212,47.14816,8.41523   c-1.39993,0.27527-2.84114,0.5584-4.32364,0.85922c-6.82463,1.38616-11.26625,3.99333-12.8392,7.53934   c-1.41172,3.18326-0.67244,7.25326,2.1982,12.09598c0.47385,0.79926,0.20842,1.83249-0.58986,2.30634   C31.32429,31.37636,31.0274,31.45206,30.7364,31.45206z"></path><path d="M69.25597,31.45206c-0.29296,0-0.58986-0.07668-0.85922-0.23693c-0.79827-0.47582-1.06174-1.50905-0.58593-2.3083   c2.62093-4.40426,3.46049-8.18917,2.49509-11.24954c-0.8258-2.61896-3.02399-4.74932-6.53364-6.32916   c-0.84743-0.38242-1.22493-1.37928-0.84349-2.22671c0.38144-0.84939,1.37436-1.22493,2.22769-0.84448   c4.42196,1.99175,7.23557,4.81421,8.36219,8.38874c1.26426,4.01397,0.31853,8.71906-2.81361,13.98352   C70.39046,31.15811,69.83009,31.45206,69.25597,31.45206z"></path><path d="M30.73247,31.45206c-0.82776,0-1.54936-0.61148-1.66536-1.45498c-0.1278-0.92116,0.51711-1.77055,1.43925-1.89737   c2.35549-0.32245,4.02085-1.40976,5.09439-3.32187c0.45419-0.81302,1.48251-1.10303,2.29257-0.64393   c0.81203,0.45517,1.0991,1.48152,0.64491,2.29159c-1.58081,2.8146-4.19977,4.54779-7.57572,5.01083   C30.88583,31.44714,30.80915,31.45206,30.73247,31.45206z"></path><path d="M69.2599,31.45206c-0.07668,0-0.15336-0.00492-0.23004-0.01573c-3.41724-0.46894-6.05585-2.20115-7.63274-5.01083   c-0.45419-0.81007-0.16713-1.83642,0.64491-2.29159c0.8081-0.4591,1.83642-0.16909,2.29258,0.64393   c1.05584,1.87967,2.78805,2.99843,5.15141,3.32187c0.92214,0.12682,1.56705,0.97621,1.43925,1.89737   C70.80925,30.84057,70.08766,31.45206,69.2599,31.45206z"></path><path d="M49.9893,29.49963c-4.55959,0-9.12704-0.77075-13.48214-2.31027c-0.87495-0.31066-1.33504-1.27212-1.02438-2.14904   c0.31066-0.87594,1.26819-1.33209,2.14904-1.02635c7.98075,2.82443,16.74011,2.82443,24.66975,0.00196   c0.88282-0.31262,1.84035,0.14648,2.151,1.02045c0.31066,0.87593-0.14549,1.83937-1.02242,2.15101   C59.10454,28.72889,54.55085,29.49963,49.9893,29.49963z"></path><path d="M25.02856,99.99529c-0.06685,0-0.1337-0.00393-0.20055-0.0118c-0.92411-0.11011-1.58278-0.9477-1.47267-1.86984   c1.00275-8.43887,4.14276-15.94971,9.32759-22.32212c0.43256-0.53481,1.15022-0.74715,1.79906-0.54857   c9.85846,3.03186,21.16796,3.03186,31.03036,0c0.88085-0.26936,1.82855,0.22611,2.10382,1.1168   c0.27133,0.88872-0.22808,1.83052-1.1168,2.10382c-10.12389,3.10854-21.68114,3.21275-31.89548,0.32639   c-4.36493,5.68031-7.02322,12.3103-7.90604,19.72086C26.59561,99.36611,25.87009,99.99529,25.02856,99.99529z"></path><path d="M74.96381,99.99529c-0.84153,0-1.56705-0.62918-1.6693-1.48447c-0.92804-7.79397-3.8203-14.72281-8.5942-20.59581   c-0.58789-0.72159-0.47778-1.78136,0.2438-2.36729c0.72552-0.58592,1.7853-0.47385,2.36729,0.2438   c5.18483,6.37437,8.32287,13.88521,9.32562,22.32212c0.11011,0.92214-0.54857,1.75974-1.47268,1.86984   C75.0975,99.99136,75.03065,99.99529,74.96381,99.99529z"></path><path d="M33.98847,78.5383c-0.64294,0-1.25836-0.37358-1.53756-1.00079l-0.67047-1.48447   c-0.43256-0.94967-0.82973-1.82462-1.17775-2.67205c-0.35195-0.85922,0.06095-1.84232,0.92214-2.19623   c0.85922-0.34801,1.84429,0.06095,2.19623,0.92214c0.33032,0.81007,0.7098,1.64373,1.12466,2.55211l0.6803,1.51003   c0.37947,0.84939-0.00393,1.84428-0.85332,2.22179C34.45053,78.49111,34.21852,78.5383,33.98847,78.5383z"></path><path d="M66.00389,78.53633c-0.23594,0-0.47581-0.04916-0.70586-0.15533c-0.84349-0.39127-1.21117-1.39206-0.81989-2.23556   c2.00157-4.32168,3.38577-7.73301,3.89698-9.60876c0.24577-0.89854,1.17774-1.42744,2.06646-1.18167   c0.89658,0.2438,1.42548,1.16988,1.18168,2.06646c-0.56626,2.08219-1.98192,5.58791-4.08967,10.13963   C67.24849,78.17652,66.64094,78.53633,66.00389,78.53633z"></path><path d="M49.96767,73.91186c-0.93,0-1.68306-0.75304-1.68306-1.68305v-1.02635c0-0.93001,0.75305-1.68305,1.68306-1.68305   c0.93001,0,1.68306,0.75304,1.68306,1.68305v1.02635C51.65073,73.15881,50.89768,73.91186,49.96767,73.91186z"></path><path d="M60.69715,99.99529c-0.93001,0-1.68306-0.75305-1.68306-1.68305v-7.73498H40.23701v7.73498   c0,0.93-0.75305,1.68305-1.68306,1.68305c-0.93001,0-1.68306-0.75305-1.68306-1.68305V88.8942   c0-0.93001,0.75305-1.68305,1.68306-1.68305h22.1432c0.93,0,1.68306,0.75304,1.68306,1.68305v9.41804   C62.38021,99.24224,61.62716,99.99529,60.69715,99.99529z"></path><path d="M12.32503,58.69947c-0.76878,0-1.53952-0.16516-2.26505-0.49352c-1.34291-0.60755-2.36336-1.70272-2.87653-3.08298   c-0.51514-1.38419-0.46992-2.8844,0.12584-4.22337c0.60362-1.35667,1.70272-2.38892,3.09281-2.90602   c1.39009-0.51711,2.89619-0.45812,4.24303,0.16319c1.34684,0.61935,2.37122,1.72435,2.88636,3.11247   c0.50924,1.33504,0.46009,2.81558-0.1455,4.15259c-0.61738,1.36257-1.72828,2.39875-3.13017,2.91979   C13.63254,58.57954,12.97977,58.69947,12.32503,58.69947z M12.32699,51.01365c-0.25364,0-0.50728,0.04522-0.75108,0.13763   c-0.00197,0-0.00197,0-0.00197,0c-0.5348,0.19859-0.95557,0.59379-1.18758,1.11679   c-0.23594,0.5289-0.25167,1.12663-0.04522,1.68109c0.19662,0.53284,0.58986,0.95557,1.10696,1.18954   c0.52104,0.23201,1.09123,0.25364,1.62014,0.05112c0.56823-0.21038,1.00669-0.61935,1.25049-1.15808   c0.23201-0.51121,0.25364-1.07157,0.06095-1.57492c-0.20842-0.56233-0.61148-0.99686-1.14235-1.24066   C12.94634,51.0805,12.63765,51.01365,12.32699,51.01365z"></path><path d="M8.76033,56.22011c-0.76091,0-1.45301-0.51907-1.63587-1.29375L0.04619,25.1347   c-0.21431-0.90445,0.34408-1.81282,1.24853-2.02714c0.90248-0.2153,1.81479,0.3431,2.02714,1.24853l7.07827,29.79166   c0.21431,0.90445-0.34408,1.81282-1.24853,2.02714C9.01987,56.20635,8.8901,56.22011,8.76033,56.22011z"></path><path d="M15.95461,53.53823c-0.60559,0-1.18954-0.32639-1.49234-0.89855L0.19365,25.5299   c-0.43256-0.82285-0.11601-1.84133,0.70586-2.27389c0.82383-0.43551,1.84035-0.11502,2.27488,0.70488l14.26862,27.10978   c0.43256,0.82383,0.116,1.84035-0.70586,2.27488C16.48744,53.47728,16.21808,53.53823,15.95461,53.53823z"></path><path d="M9.012,76.59964c-0.93591,0-1.87574-0.19859-2.76446-0.59772c-1.67322-0.75108-2.94142-2.10775-3.57256-3.81637   c-0.65081-1.65946-0.59969-3.51357,0.15926-5.1868c0.74715-1.6516,2.08612-2.92372,3.77311-3.58436   c0.00983-0.00393,0.01966-0.00787,0.02949-0.0118c1.69092-0.62132,3.5352-0.55053,5.19073,0.21431   c1.65553,0.76288,2.91192,2.11366,3.5352,3.80457c0.64688,1.6516,0.59969,3.49194-0.1455,5.15141   c-0.74912,1.67323-2.10579,2.94338-3.81637,3.5765C10.63214,76.45021,9.82404,76.59964,9.012,76.59964z M7.82049,66.55439   c-0.85726,0.34015-1.53756,0.99096-1.919,1.83249c-0.37947,0.83956-0.40897,1.76366-0.08061,2.60126   c0.32835,0.88478,0.9654,1.56312,1.80693,1.94259c0.82383,0.36964,1.74008,0.39717,2.57571,0.07079   c0.88478-0.32639,1.56508-0.9654,1.94259-1.80693c0.37161-0.82776,0.3952-1.74204,0.07078-2.5757   c-0.32442-0.87889-0.9595-1.55722-1.79906-1.94456C9.58613,66.29092,8.66202,66.24767,7.82049,66.55439z"></path><path d="M13.78197,69.68849c-0.76288,0-1.45498-0.52104-1.63587-1.29768L9.57826,57.49027   c-0.21431-0.90445,0.34605-1.81086,1.25246-2.0232c0.90641-0.21628,1.81282,0.34605,2.02321,1.25246l2.56784,10.90054   c0.21431,0.90444-0.34605,1.81086-1.25246,2.02321C14.03954,69.67473,13.90977,69.68849,13.78197,69.68849z"></path><path d="M25.73442,70.3275c-2.71924,0-5.25562-1.6516-6.32719-4.3905c-1.30358-3.60009,0.45616-7.44988,3.98939-8.80655   c0.00787-0.00196,0.01376-0.00393,0.01966-0.0059c1.71648-0.63704,3.57256-0.5584,5.23202,0.21235   c1.6398,0.76091,2.88243,2.11758,3.49785,3.8203c1.29768,3.50964-0.47975,7.42432-3.9658,8.71414   C27.37225,70.18004,26.54449,70.3275,25.73442,70.3275z M24.59207,60.27832c-1.79709,0.69603-2.68974,2.65829-2.035,4.47308   c0.69407,1.76957,2.64845,2.65435,4.43768,1.96815c1.7617-0.65081,2.64649-2.62683,1.98978-4.40623   c-0.31262-0.86316-0.93394-1.54149-1.75581-1.92293C26.39309,60.00306,25.45915,59.96766,24.59207,60.27832z"></path><path d="M20.97625,67.00661c-0.60755,0-1.19348-0.32835-1.4943-0.90248l-5.1927-9.92924   c-0.4306-0.82383-0.11207-1.84232,0.71176-2.27291c0.8317-0.43256,1.84232-0.11011,2.27291,0.71176l5.1927,9.92924   c0.4306,0.82384,0.11207,1.84232-0.71176,2.27292C21.50515,66.94566,21.23775,67.00661,20.97625,67.00661z"></path><path d="M93.62881,52.73996c-0.49744,0-0.98899-0.21825-1.32127-0.63901c-5.62527-7.10482-8.41528-15.04919-8.29534-23.61194   c0.0118-0.92902,0.76681-1.75384,1.70665-1.65946c0.93,0.01278,1.67323,0.77664,1.65946,1.70665   c-0.10815,7.76742,2.43806,14.99316,7.56785,21.47666c0.57806,0.72749,0.45419,1.78727-0.27527,2.36336   C94.36221,52.62199,93.99453,52.73996,93.62881,52.73996z"></path><path d="M84.83996,47.09012c-0.55643,0-1.10106-0.27526-1.42155-0.77959c-3.93041-6.17088-5.33427-12.64062-4.17422-19.23127   c0.16122-0.91526,1.03421-1.5179,1.94849-1.3665c0.91624,0.16123,1.52773,1.03421,1.3665,1.95046   c-1.00865,5.73537,0.23595,11.39995,3.6984,16.83842c0.49941,0.78451,0.26936,1.82462-0.51514,2.32403   C85.46127,47.00459,85.14865,47.09012,84.83996,47.09012z"></path><path d="M84.83996,47.09012c-0.59772,0-1.17774-0.3195-1.48251-0.88183c-0.44239-0.81794-0.1396-1.83937,0.67834-2.28275   c1.53953-0.83366,3.04366-1.50905,4.18404-2.00453c0.85332-0.36669,1.84428,0.02065,2.21393,0.87299   c0.37161,0.85332-0.01966,1.84428-0.87299,2.21589c-1.07551,0.46795-2.49509,1.10401-3.92058,1.87672   C85.3846,47.02426,85.10933,47.09012,84.83996,47.09012z"></path><path d="M85.69722,30.19665c-0.07865,0-0.15926-0.0059-0.23988-0.0177c-1.59851-0.22808-3.25797-0.6223-5.07079-1.20527   c-0.88479-0.28411-1.3724-1.2328-1.0873-2.11758c0.2851-0.88577,1.23476-1.37043,2.11758-1.0873   c1.62997,0.52399,3.10854,0.87593,4.51633,1.07747c0.92017,0.13075,1.56116,0.98408,1.42942,1.90425   C87.24264,29.59008,86.52105,30.19665,85.69722,30.19665z"></path><path d="M77.06763,75.71289c-1.65553,0-3.17933-0.96737-3.8321-2.55998c-0.407-0.94966-0.4129-2.04286-0.00197-3.04758   c0.42273-1.03028,1.25836-1.86395,2.29257-2.28864c7.74678-3.08495,13.75545-9.38657,16.50417-17.29458   c0.33229-1.01652,1.07944-1.87181,2.05663-2.35156c1.00079-0.48958,2.17067-0.55447,3.19702-0.18089   c2.09202,0.75895,3.19702,3.03186,2.51475,5.175C96.24187,63.35147,88.5069,71.45609,78.55996,75.44745   C78.06448,75.62834,77.55917,75.71289,77.06763,75.71289z M95.90173,51.11393c-0.11207,0-0.22414,0.02753-0.33031,0.07865   c-0.09831,0.04719-0.27134,0.16122-0.34016,0.37554c-0.00393,0.01376-0.00983,0.02753-0.01376,0.04129   c-3.06725,8.83997-9.78571,15.88482-18.43103,19.32958c-0.19072,0.07864-0.35391,0.24184-0.43649,0.44042   c-0.04719,0.116-0.08652,0.291-0.00787,0.47189c0.17303,0.4247,0.59969,0.60952,1.01455,0.45026   c8.99334-3.60795,16.02836-10.97919,19.24897-20.20257c0.116-0.36964-0.08455-0.80417-0.46992-0.94377   C96.06099,51.12769,95.98234,51.11393,95.90173,51.11393z"></path></g></g></svg><svg id="name" viewBox="0 0 308.06201171875 44.481998443603516" width="308" height="44.47304438542045" x="0" y="79" data-v-7b637543="" style="fill: rgb(21, 37, 51);"><rect x="0" y="0" width="100%" height="100%" fill="none" data-v-7b637543=""></rect><g data-v-7b637543=""><path xmlns="http://www.w3.org/2000/svg" d="M37.08 5.06Q38.50 5.34 39.22 6.03Q39.93 6.72 39.93 7.64L39.93 7.64Q39.93 9.15 39.08 9.84Q38.23 10.53 36.39 10.40L36.39 10.40Q32.25 10.07 29.92 9.96Q27.60 9.84 23.83 9.80L23.83 9.80Q22.13 18.26 20.70 26.82L20.70 26.82Q20.19 29.95 19.64 34.06Q19.09 38.18 18.91 40.71L18.91 40.71Q18.81 42.04 17.80 42.76Q16.79 43.47 15.36 43.47L15.36 43.47Q13.85 43.47 13.02 42.73Q12.19 42.00 12.19 40.80L12.19 40.80Q12.19 39.70 12.54 37.15Q12.88 34.59 13.34 31.79L13.34 31.79Q13.85 28.98 14.12 26.91L14.12 26.91Q14.63 23.41 15.27 19.96Q15.92 16.51 16.56 13.43L16.56 13.43Q16.70 12.74 16.88 11.85Q17.07 10.95 17.30 9.84L17.30 9.84Q12.79 9.98 10.21 10.58Q7.64 11.18 6.55 12.26Q5.47 13.34 5.47 15.04L5.47 15.04Q5.47 16.61 6.39 18.03L6.39 18.03Q6.58 18.35 6.58 18.72L6.58 18.72Q6.58 19.60 5.54 20.36Q4.51 21.11 3.40 21.11L3.40 21.11Q2.62 21.11 2.12 20.65L2.12 20.65Q1.20 19.87 0.60 18.42Q0 16.97 0 15.13L0 15.13Q0 11.22 2.55 8.86Q5.11 6.49 10.33 5.38Q15.55 4.28 23.74 4.28L23.74 4.28Q28.80 4.28 31.81 4.46Q34.82 4.65 37.08 5.06L37.08 5.06ZM58.19 32.98Q58.79 32.98 59.13 33.53Q59.48 34.09 59.48 35.05L59.48 35.05Q59.48 36.89 58.60 37.90L58.60 37.90Q56.49 40.34 54.26 41.91Q52.03 43.47 49.17 43.47L49.17 43.47Q46.83 43.47 45.63 42.11Q44.44 40.76 44.44 38.18L44.44 38.18Q44.44 36.89 45.08 33.58L45.08 33.58Q45.68 30.68 45.68 29.58L45.68 29.58Q45.68 28.84 45.17 28.84L45.17 28.84Q44.57 28.84 43.47 30.38Q42.37 31.92 41.26 34.45Q40.16 36.98 39.47 39.79L39.47 39.79Q38.59 43.47 35.14 43.47L35.14 43.47Q33.76 43.47 33.33 42.48Q32.89 41.49 32.89 38.92L32.89 38.92Q32.89 37.44 32.94 36.57L32.94 36.57L32.98 32.89Q32.98 25.81 34.43 18.12Q35.88 10.44 38.71 5.22Q41.54 0 45.49 0L45.49 0Q47.61 0 48.92 1.82Q50.23 3.63 50.23 6.53L50.23 6.53Q50.23 11.18 47.52 16.17Q44.80 21.16 38.69 27.83L38.69 27.83Q38.55 30.22 38.55 32.75L38.55 32.75Q40.07 28.84 41.93 26.38Q43.79 23.92 45.61 22.86Q47.43 21.80 48.94 21.80L48.94 21.80Q51.93 21.80 51.93 24.79L51.93 24.79Q51.93 26.59 50.92 31.28L50.92 31.28Q50.05 35.28 50.05 36.57L50.05 36.57Q50.05 38.41 51.38 38.41L51.38 38.41Q52.30 38.41 53.57 37.28Q54.83 36.16 56.95 33.63L56.95 33.63Q57.50 32.98 58.19 32.98L58.19 32.98ZM44.53 4.55Q43.70 4.55 42.69 6.92Q41.68 9.29 40.73 13.32Q39.79 17.34 39.19 22.08L39.19 22.08Q42.04 18.72 43.91 14.77Q45.77 10.81 45.77 7.59L45.77 7.59Q45.77 6.12 45.45 5.34Q45.13 4.55 44.53 4.55L44.53 4.55ZM76.27 32.98Q76.87 32.98 77.21 33.53Q77.56 34.09 77.56 35.05L77.56 35.05Q77.56 36.89 76.68 37.90L76.68 37.90Q74.98 39.97 71.88 41.72Q68.77 43.47 65.23 43.47L65.23 43.47Q60.40 43.47 57.73 40.85Q55.06 38.23 55.06 33.67L55.06 33.67Q55.06 30.50 56.40 27.76Q57.73 25.02 60.10 23.41Q62.47 21.80 65.46 21.80L65.46 21.80Q68.13 21.80 69.74 23.39Q71.35 24.98 71.35 27.69L71.35 27.69Q71.35 30.87 69.07 33.14Q66.79 35.42 61.36 36.75L61.36 36.75Q62.51 38.87 65.73 38.87L65.73 38.87Q67.80 38.87 70.45 37.42Q73.09 35.97 75.03 33.63L75.03 33.63Q75.58 32.98 76.27 32.98L76.27 32.98ZM64.68 26.31Q62.97 26.31 61.80 28.29Q60.63 30.27 60.63 33.07L60.63 33.07L60.63 33.17Q63.34 32.52 64.91 31.23Q66.47 29.95 66.47 28.24L66.47 28.24Q66.47 27.37 65.99 26.84Q65.50 26.31 64.68 26.31L64.68 26.31ZM104.65 43.47Q99.18 43.47 95.13 41.47Q91.08 39.47 88.92 35.79Q86.76 32.11 86.76 27.23L86.76 27.23Q86.76 20.47 89.31 15.23Q91.86 9.98 96.23 7.11Q100.60 4.23 105.94 4.23L105.94 4.23Q110.91 4.23 113.48 6.79Q116.06 9.34 116.06 13.52L116.06 13.52Q116.06 16.33 115.07 18.03Q114.08 19.73 112.24 19.73L112.24 19.73Q110.95 19.73 110.22 19.14Q109.48 18.54 109.48 17.39L109.48 17.39Q109.48 16.97 109.66 15.87L109.66 15.87Q109.94 14.49 109.94 13.66L109.94 13.66Q109.94 9.48 105.48 9.48L105.48 9.48Q102.44 9.48 99.68 11.45Q96.92 13.43 95.22 17.27Q93.52 21.11 93.52 26.40L93.52 26.40Q93.52 31.92 96.60 34.94Q99.68 37.95 105.71 37.95L105.71 37.95Q108.70 37.95 111.76 37.19Q114.82 36.43 118.54 34.87L118.54 34.87Q119.23 34.59 119.69 34.59L119.69 34.59Q120.43 34.59 120.80 35.14Q121.16 35.70 121.16 36.57L121.16 36.57Q121.16 39.38 118.13 40.71L118.13 40.71Q114.86 42.14 111.34 42.80Q107.82 43.47 104.65 43.47L104.65 43.47ZM135.01 32.98Q135.61 32.98 135.95 33.53Q136.30 34.09 136.30 35.05L136.30 35.05Q136.30 36.89 135.42 37.90L135.42 37.90Q133.45 40.34 131.12 41.91Q128.80 43.47 125.86 43.47L125.86 43.47Q121.81 43.47 119.85 39.79Q117.90 36.11 117.90 30.27L117.90 30.27Q117.90 24.66 119.35 17.48Q120.80 10.30 123.63 5.15Q126.45 0 130.36 0L130.36 0Q132.57 0 133.84 2.05Q135.10 4.09 135.10 7.91L135.10 7.91Q135.10 13.39 132.07 20.61Q129.03 27.83 123.83 34.91L123.83 34.91Q124.15 36.80 124.89 37.61Q125.63 38.41 126.82 38.41L126.82 38.41Q128.71 38.41 130.13 37.33Q131.56 36.25 133.77 33.63L133.77 33.63Q134.32 32.98 135.01 32.98L135.01 32.98ZM129.35 4.55Q128.29 4.55 126.96 8.37Q125.63 12.19 124.61 17.85Q123.60 23.51 123.51 28.70L123.51 28.70Q126.78 23.32 128.71 17.92Q130.64 12.51 130.64 8.05L130.64 8.05Q130.64 4.55 129.35 4.55L129.35 4.55ZM137.77 43.47Q134.92 43.47 133.22 41.40Q131.51 39.33 131.51 35.97L131.51 35.97Q131.51 32.29 133.22 29.00Q134.92 25.71 137.75 23.71Q140.58 21.71 143.75 21.71L143.75 21.71Q144.76 21.71 145.11 22.10Q145.45 22.49 145.68 23.51L145.68 23.51Q146.65 23.32 147.71 23.32L147.71 23.32Q149.96 23.32 149.96 24.93L149.96 24.93Q149.96 25.90 149.27 29.53L149.27 29.53Q148.21 34.82 148.21 36.89L148.21 36.89Q148.21 37.58 148.56 38.00Q148.90 38.41 149.45 38.41L149.45 38.41Q150.33 38.41 151.57 37.28Q152.81 36.16 154.93 33.63L154.93 33.63Q155.48 32.98 156.17 32.98L156.17 32.98Q156.77 32.98 157.11 33.53Q157.46 34.09 157.46 35.05L157.46 35.05Q157.46 36.89 156.58 37.90L156.58 37.90Q154.70 40.25 152.58 41.86Q150.47 43.47 148.49 43.47L148.49 43.47Q146.97 43.47 145.70 42.44Q144.44 41.40 143.80 39.61L143.80 39.61Q141.40 43.47 137.77 43.47L137.77 43.47ZM139.43 38.82Q140.44 38.82 141.36 37.63Q142.28 36.43 142.69 34.45L142.69 34.45L144.39 25.99Q142.46 26.04 140.83 27.44Q139.20 28.84 138.23 31.14Q137.26 33.44 137.26 36.02L137.26 36.02Q137.26 37.44 137.84 38.13Q138.41 38.82 139.43 38.82L139.43 38.82ZM162.29 44.48Q159.90 44.48 158.63 43.38Q157.37 42.27 157.37 40.89L157.37 40.89Q157.37 39.70 158.24 38.82Q159.11 37.95 160.82 37.95L160.82 37.95Q161.41 37.95 162.22 38.07Q163.02 38.18 163.44 38.23L163.44 38.23Q163.39 37.03 162.91 35.97Q162.43 34.91 161.69 33.93Q160.95 32.94 160.31 32.20L160.31 32.20Q158.88 34.91 157.48 36.71Q156.08 38.50 154.42 40.11L154.42 40.11Q153.59 40.94 152.67 40.94L152.67 40.94Q151.94 40.94 151.48 40.41Q151.02 39.88 151.02 39.10L151.02 39.10Q151.02 38.18 151.66 37.40L151.66 37.40L152.26 36.66Q154.79 33.53 156.08 31.51L156.08 31.51Q156.86 30.18 157.92 27.95Q158.98 25.71 159.99 23.32L159.99 23.32Q160.86 21.30 163.62 21.30L163.62 21.30Q164.91 21.30 165.42 21.53Q165.92 21.76 165.92 22.26L165.92 22.26Q165.92 22.54 165.74 23.14Q165.55 23.74 165.23 24.33L165.23 24.33Q164.40 25.99 164.40 27.14L164.40 27.14Q164.40 27.83 164.89 28.66Q165.37 29.49 166.38 30.73L166.38 30.73Q167.85 32.66 168.61 34.02Q169.37 35.37 169.37 36.98L169.37 36.98Q169.37 37.44 169.28 38.27L169.28 38.27Q171.53 37.40 174.57 33.63L174.57 33.63Q175.12 32.98 175.81 32.98L175.81 32.98Q176.41 32.98 176.75 33.53Q177.10 34.09 177.10 35.05L177.10 35.05Q177.10 36.80 176.23 37.90L176.23 37.90Q173.93 40.76 171.83 41.79Q169.74 42.83 166.66 42.92L166.66 42.92Q164.82 44.48 162.29 44.48L162.29 44.48ZM181.93 44.48Q179.54 44.48 178.27 43.38Q177.01 42.27 177.01 40.89L177.01 40.89Q177.01 39.70 177.88 38.82Q178.76 37.95 180.46 37.95L180.46 37.95Q181.06 37.95 181.86 38.07Q182.67 38.18 183.08 38.23L183.08 38.23Q183.03 37.03 182.55 35.97Q182.07 34.91 181.33 33.93Q180.60 32.94 179.95 32.20L179.95 32.20Q178.53 34.91 177.12 36.71Q175.72 38.50 174.06 40.11L174.06 40.11Q173.24 40.94 172.32 40.94L172.32 40.94Q171.58 40.94 171.12 40.41Q170.66 39.88 170.66 39.10L170.66 39.10Q170.66 38.18 171.30 37.40L171.30 37.40L171.90 36.66Q174.43 33.53 175.72 31.51L175.72 31.51Q176.50 30.18 177.56 27.95Q178.62 25.71 179.63 23.32L179.63 23.32Q180.50 21.30 183.26 21.30L183.26 21.30Q184.55 21.30 185.06 21.53Q185.56 21.76 185.56 22.26L185.56 22.26Q185.56 22.54 185.38 23.14Q185.20 23.74 184.87 24.33L184.87 24.33Q184.05 25.99 184.05 27.14L184.05 27.14Q184.05 27.83 184.53 28.66Q185.01 29.49 186.02 30.73L186.02 30.73Q187.50 32.66 188.25 34.02Q189.01 35.37 189.01 36.98L189.01 36.98Q189.01 37.44 188.92 38.27L188.92 38.27Q191.18 37.40 194.21 33.63L194.21 33.63Q194.76 32.98 195.45 32.98L195.45 32.98Q196.05 32.98 196.40 33.53Q196.74 34.09 196.74 35.05L196.74 35.05Q196.74 36.80 195.87 37.90L195.87 37.90Q193.57 40.76 191.47 41.79Q189.38 42.83 186.30 42.92L186.30 42.92Q184.46 44.48 181.93 44.48L181.93 44.48ZM199.04 18.77Q197.11 18.77 196.14 17.87Q195.18 16.97 195.18 15.36L195.18 15.36Q195.18 13.75 196.44 12.67Q197.71 11.59 199.59 11.59L199.59 11.59Q201.30 11.59 202.35 12.42Q203.41 13.25 203.41 14.77L203.41 14.77Q203.41 16.61 202.22 17.69Q201.02 18.77 199.04 18.77L199.04 18.77ZM198.67 43.47Q195.68 43.47 194.33 41.35Q192.97 39.24 192.97 35.74L192.97 35.74Q192.97 33.67 193.50 30.43Q194.03 27.19 194.86 24.38L194.86 24.38Q195.27 22.91 195.96 22.36Q196.65 21.80 198.17 21.80L198.17 21.80Q200.51 21.80 200.51 23.37L200.51 23.37Q200.51 24.52 199.64 28.70L199.64 28.70Q198.54 33.76 198.54 35.56L198.54 35.56Q198.54 36.94 198.90 37.67Q199.27 38.41 200.15 38.41L200.15 38.41Q200.97 38.41 202.22 37.26Q203.46 36.11 205.53 33.63L205.53 33.63Q206.08 32.98 206.77 32.98L206.77 32.98Q207.37 32.98 207.71 33.53Q208.06 34.09 208.06 35.05L208.06 35.05Q208.06 36.89 207.18 37.90L207.18 37.90Q202.63 43.47 198.67 43.47L198.67 43.47ZM213.12 43.47Q208.61 43.47 206.10 40.92Q203.60 38.36 203.60 34.18L203.60 34.18Q203.60 30.45 205.07 27.65Q206.54 24.84 208.89 23.32Q211.23 21.80 213.81 21.80L213.81 21.80Q216.34 21.80 217.74 23.30Q219.14 24.79 219.14 27.14L219.14 27.14Q219.14 29.07 218.29 30.41Q217.44 31.74 216.06 31.74L216.06 31.74Q215.19 31.74 214.66 31.33Q214.13 30.91 214.13 30.18L214.13 30.18Q214.13 29.85 214.22 29.44Q214.31 29.03 214.36 28.84L214.36 28.84Q214.59 28.15 214.59 27.55L214.59 27.55Q214.59 26.96 214.29 26.63Q213.99 26.31 213.44 26.31L213.44 26.31Q212.38 26.31 211.46 27.26Q210.54 28.20 209.99 29.81Q209.44 31.42 209.44 33.35L209.44 33.35Q209.44 38.69 214.08 38.69L214.08 38.69Q215.97 38.69 218.16 37.42Q220.34 36.16 222.46 33.63L222.46 33.63Q223.01 32.98 223.70 32.98L223.70 32.98Q224.30 32.98 224.64 33.53Q224.99 34.09 224.99 35.05L224.99 35.05Q224.99 36.80 224.11 37.90L224.11 37.90Q221.95 40.57 218.94 42.02Q215.92 43.47 213.12 43.47L213.12 43.47ZM252.08 43.47Q246.61 43.47 242.56 41.47Q238.51 39.47 236.35 35.79Q234.19 32.11 234.19 27.23L234.19 27.23Q234.19 20.47 236.74 15.23Q239.29 9.98 243.66 7.11Q248.03 4.23 253.37 4.23L253.37 4.23Q258.34 4.23 260.91 6.79Q263.49 9.34 263.49 13.52L263.49 13.52Q263.49 16.33 262.50 18.03Q261.51 19.73 259.67 19.73L259.67 19.73Q258.38 19.73 257.65 19.14Q256.91 18.54 256.91 17.39L256.91 17.39Q256.91 16.97 257.09 15.87L257.09 15.87Q257.37 14.49 257.37 13.66L257.37 13.66Q257.37 9.48 252.91 9.48L252.91 9.48Q249.87 9.48 247.11 11.45Q244.35 13.43 242.65 17.27Q240.95 21.11 240.95 26.40L240.95 26.40Q240.95 31.92 244.03 34.94Q247.11 37.95 253.14 37.95L253.14 37.95Q256.13 37.95 259.19 37.19Q262.25 36.43 265.97 34.87L265.97 34.87Q266.66 34.59 267.12 34.59L267.12 34.59Q267.86 34.59 268.23 35.14Q268.59 35.70 268.59 36.57L268.59 36.57Q268.59 39.38 265.56 40.71L265.56 40.71Q262.29 42.14 258.77 42.80Q255.25 43.47 252.08 43.47L252.08 43.47ZM269.70 43.47Q267.63 43.47 266.32 41.56Q265.01 39.65 265.01 36.80L265.01 36.80Q265.01 33.35 265.47 30.48Q265.93 27.60 266.98 24.38L266.98 24.38Q267.44 23.00 268.27 22.40Q269.10 21.80 270.89 21.80L270.89 21.80Q271.91 21.80 272.30 22.13Q272.69 22.45 272.69 23.09L272.69 23.09Q272.69 23.46 272.18 25.58L272.18 25.58Q271.72 27.28 271.45 28.66L271.45 28.66Q270.53 33.49 270.53 35.10L270.53 35.10Q270.53 36.06 270.76 36.45Q270.99 36.85 271.49 36.85L271.49 36.85Q272.18 36.85 273.22 35.47Q274.25 34.09 275.43 31.28Q276.60 28.47 277.70 24.38L277.70 24.38Q278.07 23.00 278.83 22.40Q279.59 21.80 281.11 21.80L281.11 21.80Q282.16 21.80 282.58 22.06Q282.99 22.31 282.99 23.00L282.99 23.00Q282.99 24.15 281.84 29.30L281.84 29.30Q280.55 35.19 280.55 36.57L280.55 36.57Q280.55 37.44 280.92 37.93Q281.29 38.41 281.89 38.41L281.89 38.41Q282.81 38.41 284.07 37.28Q285.34 36.16 287.45 33.63L287.45 33.63Q288.01 32.98 288.70 32.98L288.70 32.98Q289.29 32.98 289.64 33.53Q289.98 34.09 289.98 35.05L289.98 35.05Q289.98 36.89 289.11 37.90L289.11 37.90Q287.13 40.34 284.86 41.91Q282.58 43.47 279.68 43.47L279.68 43.47Q277.47 43.47 276.44 41.77Q275.40 40.07 275.40 36.98L275.40 36.98Q274.62 40.11 273.06 41.79Q271.49 43.47 269.70 43.47L269.70 43.47ZM306.77 32.98Q307.37 32.98 307.72 33.53Q308.06 34.09 308.06 35.05L308.06 35.05Q308.06 36.89 307.19 37.90L307.19 37.90Q305.21 40.34 302.86 41.91Q300.52 43.47 297.48 43.47L297.48 43.47Q288.10 43.47 288.10 30.27L288.10 30.27Q288.10 28.24 288.24 26.17L288.24 26.17L286.44 26.17Q285.06 26.17 284.58 25.67Q284.10 25.16 284.10 24.06L284.10 24.06Q284.10 21.48 286.17 21.48L286.17 21.48L288.79 21.48Q289.57 16.42 291.18 12.24Q292.79 8.05 295.07 5.57Q297.34 3.08 299.97 3.08L299.97 3.08Q301.90 3.08 303.00 4.78Q304.11 6.49 304.11 9.06L304.11 9.06Q304.11 16.19 298.13 21.48L298.13 21.48L303.28 21.48Q304.01 21.48 304.34 21.80Q304.66 22.13 304.66 23.00L304.66 23.00Q304.66 26.17 299.46 26.17L299.46 26.17L293.85 26.17Q293.76 28.47 293.76 29.76L293.76 29.76Q293.76 34.55 294.88 36.48Q296.01 38.41 298.45 38.41L298.45 38.41Q300.43 38.41 301.94 37.21Q303.46 36.02 305.53 33.63L305.53 33.63Q306.08 32.98 306.77 32.98L306.77 32.98ZM298.72 7.50Q298.03 7.50 297.18 9.22Q296.33 10.95 295.57 14.01Q294.81 17.07 294.31 20.79L294.31 20.79Q297.02 18.45 298.38 15.53Q299.74 12.60 299.74 10.21L299.74 10.21Q299.74 7.50 298.72 7.50L298.72 7.50Z"></path></g></svg><!----></svg>